
<svg width="60px" height="60px" viewBox="0 0 60 60" version="1.1" xmlns="http://www.w3.org/2000/svg" xmlns:xlink="http://www.w3.org/1999/xlink">
    <!-- Generator: Sketch 50 (54983) - http://www.bohemiancoding.com/sketch -->
    <desc>Created with Sketch.</desc>
    <defs>
        <linearGradient x1="50%" y1="3.34821429%" x2="50%" y2="99.5555644%" id="linearGradient-1">
            <stop stop-color="#538FD2" offset="0%"></stop>
            <stop stop-color="#386FAE" offset="100%"></stop>
        </linearGradient>
    </defs>
    <g id="Page-1" stroke="none" stroke-width="1" fill="none" fill-rule="evenodd">
        <g id="vk" fill="url(#linearGradient-1)" fill-rule="nonzero">
            <circle id="Oval-2-Copy-5" cx="30" cy="30" r="30"></circle>
        </g>
        <g id="mail-envelope" transform="translate(15.000000, 14.000000)" fill="#FFFFFF" fill-rule="nonzero">
            <path d="M29.9987851,10.7686044 C29.9987851,10.4498922 29.8396339,10.1509542 29.5717497,9.9625185 L15.6144329,0.192361418 C15.2475348,-0.0641204725 14.7506429,-0.0641204725 14.3843522,0.192361418 L0.427035455,9.96310009 C0.157936299,10.1509542 0,10.4504738 0,10.7686044 L0,27.0014072 C0,27.5521745 0.466519529,28 1.04177213,28 L28.957013,28 C29.2334015,28 29.4982485,27.8941503 29.6938466,27.7068778 C29.8894446,27.5207685 30,27.2660314 30,27.0014072 L29.9987851,10.7686044 Z M14.9990888,2.23491107 L27.914026,11.2757523 L27.914026,12.4761573 L19.0525847,18.5875217 L26.121449,22.900605 C26.6092291,23.1937271 26.7562314,23.809051 26.4488631,24.2772322 C26.2520501,24.5784967 25.9124871,24.7430871 25.5662421,24.7430871 C25.3767186,24.7430871 25.1841578,24.6942334 25.0122502,24.5907101 L15.0118452,18.5706556 L5.02784133,24.5901285 C4.85593375,24.694815 4.66337295,24.7436687 4.47384939,24.7436687 C4.12760443,24.7436687 3.78804139,24.5790783 3.59001357,24.2778138 C3.28386013,23.8107958 3.42964748,23.1954719 3.91742766,22.9011866 L10.9692834,18.5892665 L2.08475915,12.4744126 L2.08475915,11.2751707 L14.9990888,2.23491107 Z" id="Shape"></path>
        </g>
    </g>
</svg>