<?xml version="1.0" encoding="UTF-8"?>
<svg width="64px" height="66px" viewBox="0 0 64 66" version="1.1" xmlns="http://www.w3.org/2000/svg" xmlns:xlink="http://www.w3.org/1999/xlink">
    <!-- Generator: Sketch 47.1 (45422) - http://www.bohemiancoding.com/sketch -->
    <title>element_mssgme</title>
    <desc>Created with Sketch.</desc>
    <defs>
        <path d="M9.89621768,5.90213967 C9.89621768,4.57861866 10.9691435,3.50569287 12.2926645,3.50569287 C13.6161855,3.50569287 14.6891113,4.57861866 14.6891113,5.90213967 L14.6891113,28.2689765 C14.6891113,29.5924975 13.6161855,30.6654233 12.2926645,30.6654233 C10.9691435,30.6654233 9.89621768,29.5924975 9.89621768,28.2689765 L9.89621768,5.90213967 Z M29.0677921,9.09740207 C29.0677921,7.77388106 30.1407179,6.70095527 31.4642389,6.70095527 C32.7877599,6.70095527 33.8606857,7.77388106 33.8606857,9.09740207 L33.8606857,31.4642389 C33.8606857,32.7877599 32.7877599,33.8606857 31.4642389,33.8606857 C30.1407179,33.8606857 29.0677921,32.7877599 29.0677921,31.4642389 L29.0677921,9.09740207 Z M19.4820049,2.70687727 C19.4820049,1.38335625 20.5549307,0.310430464 21.8784517,0.310430464 C23.2019727,0.310430464 24.2748985,1.38335625 24.2748985,2.70687727 L24.2748985,25.0737141 C24.2748985,26.3972351 23.2019727,27.4701609 21.8784517,27.4701609 C20.5549307,27.4701609 19.4820049,26.3972351 19.4820049,25.0737141 L19.4820049,2.70687727 Z M44.8033037,34.0979299 C45.9957983,33.5237659 47.4279582,34.0250217 48.0021223,35.2175165 C48.5762863,36.4100111 48.0750305,37.842171 46.8825357,38.4163351 L26.653579,48.1562031 C17.5111201,52.5581279 6.53122761,48.7151655 2.12930291,39.5727064 C0.932110004,37.086229 0.310430464,34.3619983 0.310430464,31.6023167 L0.310430464,13.8902957 C0.310430464,12.5667747 1.38335625,11.4938489 2.70687727,11.4938489 C4.03039828,11.4938489 5.10332407,12.5667747 5.10332407,13.8902957 L5.10332407,31.6023167 C5.10332407,33.6420813 5.56282634,35.6556432 6.44770806,37.4934744 C9.70130458,44.2509441 17.8168773,47.0913945 24.574347,43.837798 L44.8033037,34.0979299 Z" id="path-1"></path>
        <filter x="-27.1%" y="-22.1%" width="154.2%" height="152.3%" filterUnits="objectBoundingBox" id="filter-2">
            <feOffset dx="0" dy="2" in="SourceAlpha" result="shadowOffsetOuter1"></feOffset>
            <feGaussianBlur stdDeviation="4" in="shadowOffsetOuter1" result="shadowBlurOuter1"></feGaussianBlur>
            <feColorMatrix values="0 0 0 0 0   0 0 0 0 0   0 0 0 0 0  0 0 0 0.08 0" type="matrix" in="shadowBlurOuter1"></feColorMatrix>
        </filter>
    </defs>
    <g id="Promotion" stroke="none" stroke-width="1" fill="none" fill-rule="evenodd">
        <g id="Личный-кабинет-–-Мессенджеры-Copy-3" transform="translate(-37.000000, -24.000000)" fill-rule="nonzero">
            <g id="element_mssgme" transform="translate(45.000000, 30.000000)">
                <g id="Combined-Shape">
                    <use fill="black" fill-opacity="1" filter="url(#filter-2)" xlink:href="#path-1"></use>
                    <use fill="#FFFFFF" fill-rule="evenodd" xlink:href="#path-1"></use>
                </g>
            </g>
        </g>
    </g>
</svg>